<mxfile host="app.diagrams.net" agent="Mozilla/5.0 (Windows NT 10.0; Win64; x64) AppleWebKit/537.36 (KHTML, like Gecko) Chrome/130.0.0.0 Safari/537.36" version="24.8.3">
  <diagram id="R2lEEEUBdFMjLlhIrx00" name="Page-1">
    <mxGraphModel grid="1" page="1" gridSize="10" guides="1" tooltips="1" connect="1" arrows="1" fold="1" pageScale="1" pageWidth="850" pageHeight="1100" math="0" shadow="0" extFonts="Permanent Marker^https://fonts.googleapis.com/css?family=Permanent+Marker">
      <root>
        <mxCell id="0" />
        <mxCell id="1" parent="0" />
        <mxCell id="WA6OBqOQne_wLXu0SwOY-1" value="Invoice" style="rounded=0;whiteSpace=wrap;html=1;" vertex="1" parent="1">
          <mxGeometry x="350" y="60" width="120" height="60" as="geometry" />
        </mxCell>
        <mxCell id="WA6OBqOQne_wLXu0SwOY-2" value="Customer" style="rounded=0;whiteSpace=wrap;html=1;" vertex="1" parent="1">
          <mxGeometry x="145" y="120" width="120" height="60" as="geometry" />
        </mxCell>
        <mxCell id="WA6OBqOQne_wLXu0SwOY-3" value="User" style="rounded=0;whiteSpace=wrap;html=1;" vertex="1" parent="1">
          <mxGeometry x="510" y="320" width="120" height="60" as="geometry" />
        </mxCell>
        <mxCell id="WA6OBqOQne_wLXu0SwOY-6" value="customerID" style="ellipse;whiteSpace=wrap;html=1;" vertex="1" parent="1">
          <mxGeometry x="50" y="125" width="70" height="50" as="geometry" />
        </mxCell>
        <mxCell id="WA6OBqOQne_wLXu0SwOY-7" value="name" style="ellipse;whiteSpace=wrap;html=1;" vertex="1" parent="1">
          <mxGeometry x="50" y="70" width="70" height="50" as="geometry" />
        </mxCell>
        <mxCell id="WA6OBqOQne_wLXu0SwOY-8" value="address" style="ellipse;whiteSpace=wrap;html=1;" vertex="1" parent="1">
          <mxGeometry x="50" y="180" width="70" height="50" as="geometry" />
        </mxCell>
        <mxCell id="WA6OBqOQne_wLXu0SwOY-9" value="invoiceID" style="ellipse;whiteSpace=wrap;html=1;" vertex="1" parent="1">
          <mxGeometry x="480" y="10" width="70" height="50" as="geometry" />
        </mxCell>
        <mxCell id="WA6OBqOQne_wLXu0SwOY-10" value="date" style="ellipse;whiteSpace=wrap;html=1;" vertex="1" parent="1">
          <mxGeometry x="480" y="70" width="70" height="50" as="geometry" />
        </mxCell>
        <mxCell id="WA6OBqOQne_wLXu0SwOY-11" value="totalAmount" style="ellipse;whiteSpace=wrap;html=1;" vertex="1" parent="1">
          <mxGeometry x="480" y="130" width="70" height="50" as="geometry" />
        </mxCell>
        <mxCell id="WA6OBqOQne_wLXu0SwOY-12" value="userID" style="ellipse;whiteSpace=wrap;html=1;" vertex="1" parent="1">
          <mxGeometry x="425" y="250" width="70" height="50" as="geometry" />
        </mxCell>
        <mxCell id="WA6OBqOQne_wLXu0SwOY-13" value="username" style="ellipse;whiteSpace=wrap;html=1;" vertex="1" parent="1">
          <mxGeometry x="425" y="310" width="70" height="50" as="geometry" />
        </mxCell>
        <mxCell id="WA6OBqOQne_wLXu0SwOY-14" value="password" style="ellipse;whiteSpace=wrap;html=1;" vertex="1" parent="1">
          <mxGeometry x="425" y="370" width="70" height="50" as="geometry" />
        </mxCell>
        <mxCell id="WA6OBqOQne_wLXu0SwOY-15" value="Expense" style="rounded=0;whiteSpace=wrap;html=1;" vertex="1" parent="1">
          <mxGeometry x="145" y="220" width="120" height="60" as="geometry" />
        </mxCell>
        <mxCell id="WA6OBqOQne_wLXu0SwOY-16" value="Role" style="rounded=0;whiteSpace=wrap;html=1;" vertex="1" parent="1">
          <mxGeometry x="700" y="320" width="120" height="60" as="geometry" />
        </mxCell>
        <mxCell id="WA6OBqOQne_wLXu0SwOY-17" value="Transaction" style="rounded=0;whiteSpace=wrap;html=1;" vertex="1" parent="1">
          <mxGeometry x="145" y="490" width="120" height="60" as="geometry" />
        </mxCell>
        <mxCell id="WA6OBqOQne_wLXu0SwOY-18" value="Product" style="rounded=0;whiteSpace=wrap;html=1;" vertex="1" parent="1">
          <mxGeometry x="560" y="490" width="120" height="60" as="geometry" />
        </mxCell>
        <mxCell id="WA6OBqOQne_wLXu0SwOY-19" value="description" style="ellipse;whiteSpace=wrap;html=1;" vertex="1" parent="1">
          <mxGeometry x="240" y="300" width="70" height="50" as="geometry" />
        </mxCell>
        <mxCell id="WA6OBqOQne_wLXu0SwOY-20" value="amount" style="ellipse;whiteSpace=wrap;html=1;" vertex="1" parent="1">
          <mxGeometry x="160" y="300" width="70" height="50" as="geometry" />
        </mxCell>
        <mxCell id="WA6OBqOQne_wLXu0SwOY-21" value="expenseID" style="ellipse;whiteSpace=wrap;html=1;" vertex="1" parent="1">
          <mxGeometry x="80" y="300" width="70" height="50" as="geometry" />
        </mxCell>
        <mxCell id="WA6OBqOQne_wLXu0SwOY-22" value="roleID" style="ellipse;whiteSpace=wrap;html=1;" vertex="1" parent="1">
          <mxGeometry x="680" y="410" width="70" height="50" as="geometry" />
        </mxCell>
        <mxCell id="WA6OBqOQne_wLXu0SwOY-23" value="roleName" style="ellipse;whiteSpace=wrap;html=1;" vertex="1" parent="1">
          <mxGeometry x="770" y="410" width="70" height="50" as="geometry" />
        </mxCell>
        <mxCell id="WA6OBqOQne_wLXu0SwOY-24" value="Total&lt;br&gt;Amount" style="ellipse;whiteSpace=wrap;html=1;" vertex="1" parent="1">
          <mxGeometry x="240" y="570" width="70" height="50" as="geometry" />
        </mxCell>
        <mxCell id="WA6OBqOQne_wLXu0SwOY-25" value="Transaction&lt;br&gt;Date" style="ellipse;whiteSpace=wrap;html=1;" vertex="1" parent="1">
          <mxGeometry x="160" y="570" width="70" height="50" as="geometry" />
        </mxCell>
        <mxCell id="WA6OBqOQne_wLXu0SwOY-26" value="Transaction&lt;br&gt;ID" style="ellipse;whiteSpace=wrap;html=1;" vertex="1" parent="1">
          <mxGeometry x="80" y="570" width="70" height="50" as="geometry" />
        </mxCell>
        <mxCell id="WA6OBqOQne_wLXu0SwOY-27" value="Product&lt;br&gt;&lt;div&gt;ID&lt;/div&gt;" style="ellipse;whiteSpace=wrap;html=1;" vertex="1" parent="1">
          <mxGeometry x="505" y="570" width="70" height="50" as="geometry" />
        </mxCell>
        <mxCell id="WA6OBqOQne_wLXu0SwOY-28" value="Product&lt;br&gt;Name" style="ellipse;whiteSpace=wrap;html=1;" vertex="1" parent="1">
          <mxGeometry x="585" y="570" width="70" height="50" as="geometry" />
        </mxCell>
        <mxCell id="WA6OBqOQne_wLXu0SwOY-29" value="Price" style="ellipse;whiteSpace=wrap;html=1;" vertex="1" parent="1">
          <mxGeometry x="665" y="570" width="70" height="50" as="geometry" />
        </mxCell>
        <mxCell id="WA6OBqOQne_wLXu0SwOY-30" value="" style="edgeStyle=entityRelationEdgeStyle;fontSize=12;html=1;endArrow=ERoneToMany;rounded=0;entryX=0;entryY=0.25;entryDx=0;entryDy=0;" edge="1" parent="1" target="WA6OBqOQne_wLXu0SwOY-1">
          <mxGeometry width="100" height="100" relative="1" as="geometry">
            <mxPoint x="265" y="150" as="sourcePoint" />
            <mxPoint x="365" y="50" as="targetPoint" />
            <Array as="points">
              <mxPoint x="330" y="210" />
            </Array>
          </mxGeometry>
        </mxCell>
        <mxCell id="WA6OBqOQne_wLXu0SwOY-35" value="" style="edgeStyle=entityRelationEdgeStyle;fontSize=12;html=1;endArrow=ERoneToMany;rounded=0;exitX=0;exitY=0.75;exitDx=0;exitDy=0;entryX=1;entryY=0.25;entryDx=0;entryDy=0;" edge="1" parent="1" source="WA6OBqOQne_wLXu0SwOY-1" target="WA6OBqOQne_wLXu0SwOY-15">
          <mxGeometry width="100" height="100" relative="1" as="geometry">
            <mxPoint x="308.33333333333337" y="190" as="sourcePoint" />
            <mxPoint x="450" y="330" as="targetPoint" />
          </mxGeometry>
        </mxCell>
        <mxCell id="WA6OBqOQne_wLXu0SwOY-36" value="" style="edgeStyle=entityRelationEdgeStyle;fontSize=12;html=1;endArrow=ERmany;startArrow=ERmany;rounded=0;exitX=1;exitY=0.5;exitDx=0;exitDy=0;entryX=0;entryY=0.5;entryDx=0;entryDy=0;" edge="1" parent="1" source="WA6OBqOQne_wLXu0SwOY-3" target="WA6OBqOQne_wLXu0SwOY-16">
          <mxGeometry width="100" height="100" relative="1" as="geometry">
            <mxPoint x="620" y="240" as="sourcePoint" />
            <mxPoint x="720" y="140" as="targetPoint" />
          </mxGeometry>
        </mxCell>
        <mxCell id="WA6OBqOQne_wLXu0SwOY-37" value="" style="edgeStyle=entityRelationEdgeStyle;fontSize=12;html=1;endArrow=ERmany;startArrow=ERmany;rounded=0;exitX=1;exitY=0.5;exitDx=0;exitDy=0;entryX=0;entryY=0.5;entryDx=0;entryDy=0;" edge="1" parent="1" source="WA6OBqOQne_wLXu0SwOY-17" target="WA6OBqOQne_wLXu0SwOY-18">
          <mxGeometry width="100" height="100" relative="1" as="geometry">
            <mxPoint x="370" y="460" as="sourcePoint" />
            <mxPoint x="470" y="360" as="targetPoint" />
          </mxGeometry>
        </mxCell>
        <mxCell id="WA6OBqOQne_wLXu0SwOY-42" value="Contains" style="shape=rhombus;perimeter=rhombusPerimeter;whiteSpace=wrap;html=1;align=center;" vertex="1" parent="1">
          <mxGeometry x="270" y="160" width="80" height="50" as="geometry" />
        </mxCell>
        <mxCell id="WA6OBqOQne_wLXu0SwOY-44" value="" style="endArrow=none;html=1;rounded=0;exitX=0;exitY=0.25;exitDx=0;exitDy=0;entryX=1;entryY=0.5;entryDx=0;entryDy=0;" edge="1" parent="1" source="WA6OBqOQne_wLXu0SwOY-2" target="WA6OBqOQne_wLXu0SwOY-7">
          <mxGeometry width="50" height="50" relative="1" as="geometry">
            <mxPoint x="150" y="100" as="sourcePoint" />
            <mxPoint x="200" y="50" as="targetPoint" />
          </mxGeometry>
        </mxCell>
        <mxCell id="WA6OBqOQne_wLXu0SwOY-45" value="" style="endArrow=none;html=1;rounded=0;exitX=0;exitY=0.5;exitDx=0;exitDy=0;entryX=1;entryY=0.5;entryDx=0;entryDy=0;" edge="1" parent="1" source="WA6OBqOQne_wLXu0SwOY-2" target="WA6OBqOQne_wLXu0SwOY-6">
          <mxGeometry width="50" height="50" relative="1" as="geometry">
            <mxPoint x="155" y="145" as="sourcePoint" />
            <mxPoint x="130" y="105" as="targetPoint" />
          </mxGeometry>
        </mxCell>
        <mxCell id="WA6OBqOQne_wLXu0SwOY-46" value="" style="endArrow=none;html=1;rounded=0;exitX=0;exitY=0.75;exitDx=0;exitDy=0;" edge="1" parent="1" source="WA6OBqOQne_wLXu0SwOY-2">
          <mxGeometry width="50" height="50" relative="1" as="geometry">
            <mxPoint x="145" y="240" as="sourcePoint" />
            <mxPoint x="120" y="205" as="targetPoint" />
          </mxGeometry>
        </mxCell>
        <mxCell id="WA6OBqOQne_wLXu0SwOY-47" value="customerID" style="ellipse;whiteSpace=wrap;html=1;" vertex="1" parent="1">
          <mxGeometry x="480" y="190" width="70" height="50" as="geometry" />
        </mxCell>
        <mxCell id="WA6OBqOQne_wLXu0SwOY-48" value="" style="endArrow=none;html=1;rounded=0;entryX=0;entryY=1;entryDx=0;entryDy=0;" edge="1" parent="1" target="WA6OBqOQne_wLXu0SwOY-9">
          <mxGeometry width="50" height="50" relative="1" as="geometry">
            <mxPoint x="470" y="70" as="sourcePoint" />
            <mxPoint x="520" y="20" as="targetPoint" />
          </mxGeometry>
        </mxCell>
        <mxCell id="WA6OBqOQne_wLXu0SwOY-49" value="" style="endArrow=none;html=1;rounded=0;entryX=0;entryY=0.5;entryDx=0;entryDy=0;exitX=1.005;exitY=0.597;exitDx=0;exitDy=0;exitPerimeter=0;" edge="1" parent="1" source="WA6OBqOQne_wLXu0SwOY-1" target="WA6OBqOQne_wLXu0SwOY-10">
          <mxGeometry width="50" height="50" relative="1" as="geometry">
            <mxPoint x="290" y="340" as="sourcePoint" />
            <mxPoint x="340" y="290" as="targetPoint" />
          </mxGeometry>
        </mxCell>
        <mxCell id="WA6OBqOQne_wLXu0SwOY-50" value="" style="endArrow=none;html=1;rounded=0;" edge="1" parent="1" source="WA6OBqOQne_wLXu0SwOY-11">
          <mxGeometry width="50" height="50" relative="1" as="geometry">
            <mxPoint x="420" y="160" as="sourcePoint" />
            <mxPoint x="470" y="110" as="targetPoint" />
          </mxGeometry>
        </mxCell>
        <mxCell id="WA6OBqOQne_wLXu0SwOY-51" value="" style="endArrow=none;html=1;rounded=0;exitX=0.094;exitY=0.132;exitDx=0;exitDy=0;exitPerimeter=0;" edge="1" parent="1" source="WA6OBqOQne_wLXu0SwOY-47">
          <mxGeometry width="50" height="50" relative="1" as="geometry">
            <mxPoint x="400" y="170" as="sourcePoint" />
            <mxPoint x="450" y="120" as="targetPoint" />
          </mxGeometry>
        </mxCell>
        <mxCell id="WA6OBqOQne_wLXu0SwOY-52" value="invoiceID" style="ellipse;whiteSpace=wrap;html=1;" vertex="1" parent="1">
          <mxGeometry x="320" y="300" width="70" height="50" as="geometry" />
        </mxCell>
        <mxCell id="WA6OBqOQne_wLXu0SwOY-53" value="" style="endArrow=none;html=1;rounded=0;entryX=0.039;entryY=1.006;entryDx=0;entryDy=0;entryPerimeter=0;exitX=1;exitY=0;exitDx=0;exitDy=0;" edge="1" parent="1" source="WA6OBqOQne_wLXu0SwOY-21" target="WA6OBqOQne_wLXu0SwOY-15">
          <mxGeometry width="50" height="50" relative="1" as="geometry">
            <mxPoint x="180" y="340" as="sourcePoint" />
            <mxPoint x="230" y="290" as="targetPoint" />
          </mxGeometry>
        </mxCell>
        <mxCell id="WA6OBqOQne_wLXu0SwOY-54" value="" style="endArrow=none;html=1;rounded=0;entryX=0.25;entryY=1;entryDx=0;entryDy=0;exitX=0.376;exitY=0.013;exitDx=0;exitDy=0;exitPerimeter=0;" edge="1" parent="1" source="WA6OBqOQne_wLXu0SwOY-20" target="WA6OBqOQne_wLXu0SwOY-15">
          <mxGeometry width="50" height="50" relative="1" as="geometry">
            <mxPoint x="190" y="300" as="sourcePoint" />
            <mxPoint x="230" y="290" as="targetPoint" />
          </mxGeometry>
        </mxCell>
        <mxCell id="WA6OBqOQne_wLXu0SwOY-55" value="" style="endArrow=none;html=1;rounded=0;entryX=0.607;entryY=0.997;entryDx=0;entryDy=0;entryPerimeter=0;exitX=0.226;exitY=0.082;exitDx=0;exitDy=0;exitPerimeter=0;" edge="1" parent="1" source="WA6OBqOQne_wLXu0SwOY-19" target="WA6OBqOQne_wLXu0SwOY-15">
          <mxGeometry width="50" height="50" relative="1" as="geometry">
            <mxPoint x="180" y="340" as="sourcePoint" />
            <mxPoint x="230" y="290" as="targetPoint" />
          </mxGeometry>
        </mxCell>
        <mxCell id="WA6OBqOQne_wLXu0SwOY-56" value="" style="endArrow=none;html=1;rounded=0;entryX=0.967;entryY=1;entryDx=0;entryDy=0;entryPerimeter=0;" edge="1" parent="1" source="WA6OBqOQne_wLXu0SwOY-52" target="WA6OBqOQne_wLXu0SwOY-15">
          <mxGeometry width="50" height="50" relative="1" as="geometry">
            <mxPoint x="250" y="330" as="sourcePoint" />
            <mxPoint x="300" y="280" as="targetPoint" />
          </mxGeometry>
        </mxCell>
        <mxCell id="WA6OBqOQne_wLXu0SwOY-57" value="" style="endArrow=none;html=1;rounded=0;exitX=0.914;exitY=0.788;exitDx=0;exitDy=0;exitPerimeter=0;entryX=-0.002;entryY=0.077;entryDx=0;entryDy=0;entryPerimeter=0;" edge="1" parent="1" source="WA6OBqOQne_wLXu0SwOY-12" target="WA6OBqOQne_wLXu0SwOY-3">
          <mxGeometry width="50" height="50" relative="1" as="geometry">
            <mxPoint x="490" y="300" as="sourcePoint" />
            <mxPoint x="540" y="250" as="targetPoint" />
          </mxGeometry>
        </mxCell>
        <mxCell id="WA6OBqOQne_wLXu0SwOY-58" value="" style="endArrow=none;html=1;rounded=0;exitX=1;exitY=0.5;exitDx=0;exitDy=0;entryX=0;entryY=0.25;entryDx=0;entryDy=0;" edge="1" parent="1" source="WA6OBqOQne_wLXu0SwOY-13" target="WA6OBqOQne_wLXu0SwOY-3">
          <mxGeometry width="50" height="50" relative="1" as="geometry">
            <mxPoint x="480" y="320" as="sourcePoint" />
            <mxPoint x="530" y="270" as="targetPoint" />
          </mxGeometry>
        </mxCell>
        <mxCell id="WA6OBqOQne_wLXu0SwOY-59" value="" style="endArrow=none;html=1;rounded=0;exitX=0.96;exitY=0.34;exitDx=0;exitDy=0;exitPerimeter=0;entryX=-0.002;entryY=0.703;entryDx=0;entryDy=0;entryPerimeter=0;" edge="1" parent="1" source="WA6OBqOQne_wLXu0SwOY-14" target="WA6OBqOQne_wLXu0SwOY-3">
          <mxGeometry width="50" height="50" relative="1" as="geometry">
            <mxPoint x="490" y="390" as="sourcePoint" />
            <mxPoint x="540" y="340" as="targetPoint" />
          </mxGeometry>
        </mxCell>
        <mxCell id="WA6OBqOQne_wLXu0SwOY-60" value="" style="endArrow=none;html=1;rounded=0;entryX=0.167;entryY=1;entryDx=0;entryDy=0;entryPerimeter=0;exitX=0.371;exitY=0.02;exitDx=0;exitDy=0;exitPerimeter=0;" edge="1" parent="1" source="WA6OBqOQne_wLXu0SwOY-22" target="WA6OBqOQne_wLXu0SwOY-16">
          <mxGeometry width="50" height="50" relative="1" as="geometry">
            <mxPoint x="690" y="280" as="sourcePoint" />
            <mxPoint x="740" y="230" as="targetPoint" />
          </mxGeometry>
        </mxCell>
        <mxCell id="WA6OBqOQne_wLXu0SwOY-61" value="" style="endArrow=none;html=1;rounded=0;entryX=0.833;entryY=1;entryDx=0;entryDy=0;entryPerimeter=0;exitX=0.457;exitY=0.007;exitDx=0;exitDy=0;exitPerimeter=0;" edge="1" parent="1" source="WA6OBqOQne_wLXu0SwOY-23" target="WA6OBqOQne_wLXu0SwOY-16">
          <mxGeometry width="50" height="50" relative="1" as="geometry">
            <mxPoint x="700" y="340" as="sourcePoint" />
            <mxPoint x="750" y="290" as="targetPoint" />
          </mxGeometry>
        </mxCell>
        <mxCell id="WA6OBqOQne_wLXu0SwOY-62" value="customerID" style="ellipse;whiteSpace=wrap;html=1;" vertex="1" parent="1">
          <mxGeometry x="320" y="570" width="70" height="50" as="geometry" />
        </mxCell>
        <mxCell id="WA6OBqOQne_wLXu0SwOY-63" value="" style="endArrow=none;html=1;rounded=0;entryX=0.048;entryY=1.013;entryDx=0;entryDy=0;entryPerimeter=0;" edge="1" parent="1" source="WA6OBqOQne_wLXu0SwOY-26" target="WA6OBqOQne_wLXu0SwOY-17">
          <mxGeometry width="50" height="50" relative="1" as="geometry">
            <mxPoint x="200" y="550" as="sourcePoint" />
            <mxPoint x="250" y="500" as="targetPoint" />
          </mxGeometry>
        </mxCell>
        <mxCell id="WA6OBqOQne_wLXu0SwOY-64" value="" style="endArrow=none;html=1;rounded=0;entryX=0.23;entryY=0.99;entryDx=0;entryDy=0;entryPerimeter=0;exitX=0.443;exitY=-0.003;exitDx=0;exitDy=0;exitPerimeter=0;" edge="1" parent="1" source="WA6OBqOQne_wLXu0SwOY-25" target="WA6OBqOQne_wLXu0SwOY-17">
          <mxGeometry width="50" height="50" relative="1" as="geometry">
            <mxPoint x="200" y="550" as="sourcePoint" />
            <mxPoint x="250" y="500" as="targetPoint" />
          </mxGeometry>
        </mxCell>
        <mxCell id="WA6OBqOQne_wLXu0SwOY-65" value="" style="endArrow=none;html=1;rounded=0;entryX=0.731;entryY=1.006;entryDx=0;entryDy=0;entryPerimeter=0;" edge="1" parent="1" source="WA6OBqOQne_wLXu0SwOY-24" target="WA6OBqOQne_wLXu0SwOY-17">
          <mxGeometry width="50" height="50" relative="1" as="geometry">
            <mxPoint x="160" y="580" as="sourcePoint" />
            <mxPoint x="210" y="530" as="targetPoint" />
          </mxGeometry>
        </mxCell>
        <mxCell id="WA6OBqOQne_wLXu0SwOY-66" value="" style="endArrow=none;html=1;rounded=0;exitX=0.998;exitY=0.931;exitDx=0;exitDy=0;exitPerimeter=0;entryX=0.296;entryY=0.031;entryDx=0;entryDy=0;entryPerimeter=0;" edge="1" parent="1" source="WA6OBqOQne_wLXu0SwOY-17" target="WA6OBqOQne_wLXu0SwOY-62">
          <mxGeometry width="50" height="50" relative="1" as="geometry">
            <mxPoint x="340" y="510" as="sourcePoint" />
            <mxPoint x="390" y="460" as="targetPoint" />
          </mxGeometry>
        </mxCell>
        <mxCell id="WA6OBqOQne_wLXu0SwOY-67" value="" style="endArrow=none;html=1;rounded=0;" edge="1" parent="1" source="WA6OBqOQne_wLXu0SwOY-27" target="WA6OBqOQne_wLXu0SwOY-18">
          <mxGeometry width="50" height="50" relative="1" as="geometry">
            <mxPoint x="590" y="550" as="sourcePoint" />
            <mxPoint x="640" y="500" as="targetPoint" />
            <Array as="points">
              <mxPoint x="550" y="570" />
            </Array>
          </mxGeometry>
        </mxCell>
        <mxCell id="WA6OBqOQne_wLXu0SwOY-68" value="" style="endArrow=none;html=1;rounded=0;entryX=0.286;entryY=0.054;entryDx=0;entryDy=0;entryPerimeter=0;" edge="1" parent="1" target="WA6OBqOQne_wLXu0SwOY-28">
          <mxGeometry width="50" height="50" relative="1" as="geometry">
            <mxPoint x="590" y="550" as="sourcePoint" />
            <mxPoint x="600" y="570" as="targetPoint" />
          </mxGeometry>
        </mxCell>
        <mxCell id="WA6OBqOQne_wLXu0SwOY-69" value="" style="endArrow=none;html=1;rounded=0;entryX=0.815;entryY=1.003;entryDx=0;entryDy=0;entryPerimeter=0;exitX=0.093;exitY=0.203;exitDx=0;exitDy=0;exitPerimeter=0;" edge="1" parent="1" source="WA6OBqOQne_wLXu0SwOY-29" target="WA6OBqOQne_wLXu0SwOY-18">
          <mxGeometry width="50" height="50" relative="1" as="geometry">
            <mxPoint x="570" y="570" as="sourcePoint" />
            <mxPoint x="620" y="520" as="targetPoint" />
          </mxGeometry>
        </mxCell>
      </root>
    </mxGraphModel>
  </diagram>
</mxfile>
